<svg xmlns="http://www.w3.org/2000/svg" viewBox="0 0 1200 760" role="img" aria-label="Software engineering portfolio concept illustration">
  <defs>
    <linearGradient id="bg" x1="0" y1="0" x2="1" y2="1">
      <stop offset="0" stop-color="#101526"/><stop offset=".5" stop-color="#16152d"/><stop offset="1" stop-color="#071a1f"/>
    </linearGradient>
    <linearGradient id="g1" x1="0" y1="0" x2="1" y2="1">
      <stop offset="0" stop-color="#7c6cff"/><stop offset="1" stop-color="#00d4aa"/>
    </linearGradient>
    <linearGradient id="g2" x1="0" y1="0" x2="1" y2="1">
      <stop offset="0" stop-color="#ff7a59"/><stop offset="1" stop-color="#6c63ff"/>
    </linearGradient>
    <filter id="glow"><feGaussianBlur stdDeviation="18" result="b"/><feMerge><feMergeNode in="b"/><feMergeNode in="SourceGraphic"/></feMerge></filter>
    <filter id="shadow"><feDropShadow dx="0" dy="18" stdDeviation="24" flood-color="#000" flood-opacity=".45"/></filter>
  </defs>
  <rect width="1200" height="760" rx="42" fill="url(#bg)"/>
  <circle cx="920" cy="160" r="160" fill="#6c63ff" opacity=".12" filter="url(#glow)"/>
  <circle cx="1040" cy="520" r="190" fill="#00d4aa" opacity=".08" filter="url(#glow)"/>

  <g opacity=".96" filter="url(#shadow)">
    <g transform="translate(84 88)">
      <rect width="300" height="138" rx="24" fill="#171d2d" stroke="#655bff" stroke-opacity=".65"/>
      <circle cx="38" cy="38" r="16" fill="#6c63ff"/><text x="70" y="43" fill="#f4f7ff" font-size="20" font-family="Arial" font-weight="700">Business Analysis</text>
      <text x="28" y="82" fill="#9aa3ba" font-size="15" font-family="Arial">Requirements · Process Analysis</text>
      <text x="28" y="108" fill="#9aa3ba" font-size="15" font-family="Arial">User Stories · Business Rules</text>
    </g>
    <g transform="translate(400 44)">
      <rect width="300" height="138" rx="24" fill="#171d2d" stroke="#00d4aa" stroke-opacity=".55"/>
      <circle cx="38" cy="38" r="16" fill="#00d4aa"/><text x="70" y="43" fill="#f4f7ff" font-size="20" font-family="Arial" font-weight="700">Software Testing</text>
      <text x="28" y="82" fill="#9aa3ba" font-size="15" font-family="Arial">Test Scenarios · API Validation</text>
      <text x="28" y="108" fill="#9aa3ba" font-size="15" font-family="Arial">Automation · Defect Investigation</text>
    </g>
    <g transform="translate(115 268)">
      <rect width="300" height="138" rx="24" fill="#171d2d" stroke="#00d4aa" stroke-opacity=".55"/>
      <circle cx="38" cy="38" r="16" fill="#00d4aa"/><text x="70" y="43" fill="#f4f7ff" font-size="20" font-family="Arial" font-weight="700">Data &amp; Migration</text>
      <text x="28" y="82" fill="#9aa3ba" font-size="15" font-family="Arial">PostgreSQL · Data Validation</text>
      <text x="28" y="108" fill="#9aa3ba" font-size="15" font-family="Arial">Dry Run · Reconciliation</text>
    </g>
    <g transform="translate(438 225)">
      <rect width="300" height="138" rx="24" fill="#171d2d" stroke="#8b5cf6" stroke-opacity=".58"/>
      <circle cx="38" cy="38" r="16" fill="#8b5cf6"/><text x="70" y="43" fill="#f4f7ff" font-size="20" font-family="Arial" font-weight="700">Development</text>
      <text x="28" y="82" fill="#9aa3ba" font-size="15" font-family="Arial">Web Apps · API Integration</text>
      <text x="28" y="108" fill="#9aa3ba" font-size="15" font-family="Arial">Business Logic · Database</text>
    </g>
    <g transform="translate(308 448)">
      <rect width="330" height="138" rx="24" fill="#171d2d" stroke="#6c63ff" stroke-opacity=".6"/>
      <circle cx="38" cy="38" r="16" fill="#6c63ff"/><text x="70" y="43" fill="#f4f7ff" font-size="20" font-family="Arial" font-weight="700">Deployment &amp; CI/CD</text>
      <text x="28" y="82" fill="#9aa3ba" font-size="15" font-family="Arial">GitHub Actions · Docker</text>
      <text x="28" y="108" fill="#9aa3ba" font-size="15" font-family="Arial">Build · Deploy · Troubleshoot</text>
    </g>
  </g>

  <g transform="translate(760 105)" filter="url(#shadow)">
    <rect width="350" height="470" rx="30" fill="#0d111c" stroke="#46506b"/>
    <rect x="24" y="24" width="302" height="48" rx="14" fill="#171d2d"/>
    <circle cx="50" cy="48" r="7" fill="#ff6b6b"/><circle cx="72" cy="48" r="7" fill="#ffd166"/><circle cx="94" cy="48" r="7" fill="#06d6a0"/>
    <rect x="24" y="92" width="86" height="350" rx="16" fill="#131827"/>
    <rect x="126" y="92" width="200" height="98" rx="18" fill="#171f31"/>
    <path d="M148 164 C180 132 220 173 252 132 S304 144 315 118" fill="none" stroke="url(#g1)" stroke-width="5"/>
    <rect x="126" y="208" width="200" height="104" rx="18" fill="#171f31"/>
    <rect x="146" y="280" width="20" height="14" rx="4" fill="#6c63ff"/><rect x="176" y="260" width="20" height="34" rx="4" fill="#00d4aa"/><rect x="206" y="242" width="20" height="52" rx="4" fill="#ff7a59"/><rect x="236" y="252" width="20" height="42" rx="4" fill="#6c63ff"/><rect x="266" y="229" width="20" height="65" rx="4" fill="#00d4aa"/>
    <rect x="126" y="330" width="200" height="112" rx="18" fill="#171f31"/>
    <circle cx="176" cy="386" r="32" fill="none" stroke="#232b3f" stroke-width="12"/>
    <path d="M176 354 A32 32 0 1 1 148 402" fill="none" stroke="url(#g2)" stroke-width="12" stroke-linecap="round"/>
    <rect x="226" y="356" width="76" height="10" rx="5" fill="#49516b"/><rect x="226" y="381" width="60" height="10" rx="5" fill="#49516b"/><rect x="226" y="406" width="84" height="10" rx="5" fill="#49516b"/>
  </g>

  <text x="86" y="690" fill="#ffffff" font-size="30" font-family="Arial" font-weight="700">Turning ideas into reliable systems.</text>
  <text x="86" y="722" fill="#8f99b3" font-size="17" font-family="Arial">BA · QA · Development · Data · Automation</text>
</svg>